<svg enable-background="new 0 0 512 512" height="512" id="Capa_1" viewBox="0 0 512 512" width="512"
     xmlns="http://www.w3.org/2000/svg">
	<g>
		<path d="m507.526 485.32c9.496 9.387 2.875 25.614-10.469 25.68-.104.001-195.458 1-195.56 1-72.779 0-138.723-37.245-176.961-96.48 142.064.677 58.514.48 85.966.48 157.852 0 254.666-170.405 179.691-305.12.99.24 1.96.59 2.91 1.05 125.688 60.823 157.382 223.738 67.647 327.23z"
		      fill="#ebebff"/>
		<path d="m497.06 511c-.11 0-195.46 1-195.56 1v-116.97c100.15-49.59 147.79-177.95 88.69-284.15.99.24 1.96.59 2.91 1.05 125.69 60.82 157.38 223.74 67.65 327.23l46.78 46.16c9.49 9.39 2.87 25.61-10.47 25.68z"
		      fill="#dcdcff"/>
		<path d="m210.501 0c-116.064 0-210.489 94.43-210.489 210.5 0 51.099 18.088 99.427 51.238 137.663l-46.775 46.16c-9.48 9.357-2.913 25.613 10.465 25.677l189.381.902c119.45 3.471 216.669-92.87 216.669-210.402 0-116.07-94.424-210.5-210.489-210.5z"
		      fill="#4bd675"/>
		<path d="m420.99 210.5c0 115.5-93.88 210.53-210.49 210.49v-420.99c116.07 0 210.49 94.43 210.49 210.5z" fill="#00bf76"/>
		<path d="m121.006 166h179.991c8.284 0 14.999-6.716 14.999-15s-6.715-15-14.999-15h-179.991c-8.284 0-14.999 6.716-14.999 15s6.715 15 14.999 15z"
		      fill="#80f280"/>
		<path d="m316 151c0 8.28-6.72 15-15 15h-90.5v-30h90.5c8.28 0 15 6.72 15 15z" fill="#4bd675"/>
		<path d="m300.997 196h-179.991c-8.284 0-14.999 6.716-14.999 15s6.715 15 14.999 15h179.991c8.284 0 14.999-6.716 14.999-15s-6.716-15-14.999-15z"
		      fill="#80f280"/>
		<path d="m316 211c0 8.28-6.72 15-15 15h-90.5v-30h90.5c8.28 0 15 6.72 15 15z" fill="#4bd675"/>
		<path d="m300.997 256h-179.991c-8.284 0-14.999 6.716-14.999 15s6.715 15 14.999 15h179.991c8.284 0 14.999-6.716 14.999-15s-6.716-15-14.999-15z"
		      fill="#80f280"/>
		<path d="m316 271c0 8.28-6.72 15-15 15h-90.5v-30h90.5c8.28 0 15 6.72 15 15z" fill="#4bd675"/>
	</g>
</svg>
