<svg viewBox="0 0 512 512" xmlns="http://www.w3.org/2000/svg">
	<path d="M468.1 65.9c-58.6-58.6-153.5-58.6-212.1 0 -58.6-58.6-153.5-58.6-212.1 0s-58.6 153.5 0 212.1l212.1 212.1 212.1-212.1C526.6 219.4 526.6 124.4 468.1 65.9z"
	      fill="#F92814"/>
	<path d="M468.1 65.9c-58.6-58.6-153.5-58.6-212.1 0 0 73.3 0 424.2 0 424.2l212.1-212.1C526.6 219.4 526.6 124.4 468.1 65.9z"
	      fill="#DB0404"/>
	<polygon
					fill="#F2F6FC"
					points="283.8 322.8 228.2 211.5 209.6 248.6 126.2 248.6 126.2 218.6 191.1 218.6 228.2 144.4 283.8 255.7 302.4 218.6 385.8 218.6 385.8 248.6 320.9 248.6 "/>
	<polygon fill="#E9EDF5" points="283.8 322.8 256 267.1 256 200.1 283.8 255.7 302.4 218.6 385.8 218.6 385.8 248.6 320.9 248.6 "/>
</svg>
