<svg enable-background="new 0 0 511.999 511.999" height="512" id="Capa_1" viewBox="0 0 511.999 511.999" width="512"
     xmlns="http://www.w3.org/2000/svg">
	<g>
		<path d="m509.318 294.035c-2.314-3.325-5.874-5.581-9.888-6.24-19.995-3.296-40.679-20.742-40.679-44.224 0-21.694 18.706-38.452 36.299-43.213 3.926-1.055 7.251-3.662 9.214-7.207 1.963-3.56 2.402-7.749 1.23-11.646-6.622-21.68-16.406-42.744-29.092-62.607-4.175-6.519-12.627-8.804-19.497-5.259-17.827 9.111-44.345 5.581-57.88-7.954-13.184-13.198-16.729-33.56-8.818-50.669 3.237-7.031.615-15.366-6.064-19.263-20.332-11.836-42.275-20.801-65.229-26.631-4.131-1.04-8.555-.249-12.129 2.139-3.545 2.417-5.889 6.24-6.445 10.488-2.871 22.368-21.943 39.243-44.341 39.243s-41.47-16.875-44.341-39.243c-.557-4.248-2.9-8.071-6.445-10.488-3.545-2.388-7.969-3.149-12.129-2.139-23.657 6.006-46.26 15.366-67.163 27.817-3.691 2.197-6.255 5.874-7.061 10.078-.806 4.219.234 8.584 2.856 11.968 13.784 17.871 12.231 43.286-3.604 59.121-15.908 15.879-46.776 17.563-64.882 3.604-3.369-2.607-7.705-3.633-11.968-2.856-4.204.806-7.881 3.369-10.078 7.061-10.43 17.52-18.604 35.61-24.287 53.76-1.348 4.307-.688 8.994 1.802 12.759 2.505 3.779 6.563 6.211 11.06 6.65 24.053 2.344 43.638 22.31 43.638 44.487 0 23.965-22.427 45-48.398 45-4.497 0-8.76 2.021-11.602 5.493-2.856 3.486-3.984 8.057-3.105 12.466 5.186 25.767 14.458 50.669 27.539 74.004 2.3 4.102 6.372 6.885 11.03 7.515 4.731.776 9.346-.923 12.656-4.248l2.344-2.344c16.758-16.758 52.636-16.758 69.394 0 17.576 17.576 17.613 46.02-.015 63.647l-4.117 4.131c-3.237 3.237-4.804 7.778-4.277 12.319.527 4.556 3.105 8.599 6.987 11.016 22.061 13.696 46.039 23.892 71.25 30.293 4.131 1.055 8.569.264 12.129-2.139 3.545-2.417 5.889-6.24 6.445-10.488 2.871-22.368 21.943-39.243 44.341-39.243s41.47 16.875 44.341 39.243c1.176 8.978 9.908 14.819 18.574 12.627 23.657-6.006 46.26-15.366 67.163-27.817 3.691-2.197 6.255-5.874 7.061-10.078.806-4.219-.234-8.584-2.856-11.968-13.784-17.871-12.231-43.286 3.604-59.121 15.864-15.864 46.645-17.563 64.735-3.604 3.384 2.607 7.764 3.633 11.968 2.856 4.219-.806 7.881-3.384 10.078-7.061 15.059-25.313 25.503-52.427 31.055-80.581.776-3.984-.088-8.115-2.403-11.454zm-253.319 36.958c-41.422 0-75-33.578-75-75s33.578-75 75-75 75 33.578 75 75-33.578 75-75 75z"
		      fill="#f0f7ff"/>
		<path d="m300.34 490.236c1.176 8.978 9.908 14.819 18.574 12.627 23.657-6.006 46.26-15.366 67.163-27.817 3.691-2.197 6.255-5.874 7.061-10.078.806-4.219-.234-8.584-2.856-11.968-13.784-17.871-12.231-43.286 3.604-59.121 15.864-15.864 46.645-17.563 64.735-3.604 3.384 2.607 7.764 3.633 11.968 2.856 4.219-.806 7.881-3.384 10.078-7.061 15.059-25.313 25.503-52.427 31.055-80.581.776-3.984-.088-8.115-2.402-11.455-2.314-3.325-5.874-5.581-9.888-6.24-19.995-3.296-40.679-20.742-40.679-44.224 0-21.694 18.706-38.452 36.299-43.213 3.926-1.055 7.251-3.662 9.214-7.207 1.963-3.56 2.402-7.749 1.23-11.646-6.622-21.68-16.406-42.744-29.092-62.607-4.175-6.519-12.627-8.804-19.497-5.259-17.827 9.111-44.345 5.581-57.88-7.954-13.184-13.198-16.729-33.56-8.818-50.669 3.237-7.031.615-15.366-6.064-19.263-20.332-11.836-42.275-20.801-65.229-26.631-4.131-1.04-8.555-.249-12.129 2.139-3.545 2.417-5.889 6.24-6.445 10.488-2.871 22.368-21.943 39.243-44.341 39.243v120c41.422 0 75 33.578 75 75s-33.578 75-75 75v120c22.395.002 41.467 16.877 44.339 39.245z"
		      fill="#dfe7f4"/>
		<path d="m255.999 150.993c-57.891 0-105 47.109-105 105s47.109 105 105 105 105-47.109 105-105-47.11-105-105-105zm0 150c-24.814 0-45-20.186-45-45s20.186-45 45-45 45 20.186 45 45-20.186 45-45 45z"
		      fill="#596c76"/>
		<path d="m360.999 255.993c0-57.891-47.109-105-105-105v60c24.814 0 45 20.186 45 45s-20.186 45-45 45v60c57.89 0 105-47.11 105-105z"
		      fill="#3b4a51"/>
	</g>
</svg>
