<svg viewBox="0 0 512 512" xmlns="http://www.w3.org/2000/svg">
	<style>.a {
      fill: #383838;
  }

  .b {
      fill: #7C8388;
  }

  .c {
      fill: #575F64;
  }</style>
	<path d="M320.6 29.1h-129.1c-21.2 0-38.8 17-38.8 38v61.4c0 8.3 6.7 15.1 15.1 15.1s15.1-6.7 15.1-15.1V67.1c0-4.5 4-7.9 8.7-7.9h129.1c4.7 0 8.7 3.4 8.7 7.9v61.4c0 8.3 6.7 15.1 15.1 15.1 8.3 0 15.1-6.7 15.1-15.1V67.1C359.4 46.2 341.7 29.1 320.6 29.1z"
	      fill="#FF9F00"/>
	<path class="a"
	      d="M320.6 29.1h-129.1c-21.2 0-38.8 17-38.8 38v61.4c0 8.3 6.7 15.1 15.1 15.1s15.1-6.7 15.1-15.1V67.1c0-4.5 4-7.9 8.7-7.9h129.1c4.7 0 8.7 3.4 8.7 7.9v61.4c0 8.3 6.7 15.1 15.1 15.1 8.3 0 15.1-6.7 15.1-15.1V67.1C359.4 46.2 341.7 29.1 320.6 29.1z"/>
	<path class="b"
	      d="M256 29.1h-64.6c-21.2 0-38.8 17-38.8 38v61.4c0 8.3 6.7 15.1 15.1 15.1s15.1-6.7 15.1-15.1V67.1c0-4.5 4-7.9 8.7-7.9H256V29.1z"/>
	<path d="M433.2 113.4H78.8C35.2 113.4 0 149 0 192.5v225.8c0 35.6 28.7 64.6 64.4 64.6h383.3c35.6 0 64.4-29 64.4-64.6V192.5C512 149 476.8 113.4 433.2 113.4z"
	      fill="#818F99"/>
	<path d="M256 113.4H78.8C35.2 113.4 0 149 0 192.5v225.8c0 35.6 28.7 64.6 64.4 64.6H256V113.4z" fill="#C5D3DD"/>
	<path class="c"
	      d="M36.2 270.4l175.7 42.8h88.1l175.7-42.8c18.4-5.7 32.4-21 36.2-40.1v-37.7c0-43.6-35.2-79.1-78.8-79.1H78.8C35.2 113.4 0 149 0 192.5v37.7C3.8 249.4 17.8 264.7 36.2 270.4z"/>
	<path class="a"
	      d="M312.2 292.3c0-19.5-15.8-35.3-35.3-35.3h-41.9c-19.5 0-35.3 15.8-35.3 35.3v42.9c0 19.5 15.8 35.3 35.3 35.3h41.9c19.5 0 35.3-15.8 35.3-35.3V292.3z"/>
	<path class="b" d="M256 113.4H78.8C35.2 113.4 0 149 0 192.5v37.7c3.8 19.2 17.8 34.5 36.2 40.1l175.7 42.8H256V113.4z"/>
	<path class="c" d="M256 257h-21c-19.5 0-35.3 15.8-35.3 35.3v42.9c0 19.5 15.8 35.3 35.3 35.3H256V257z"/>
</svg>
